<svg xmlns="http://www.w3.org/2000/svg" viewBox="0 0 64 64"><style type="text/css">.cls-0 {fill:#09151F;}
.cls-1 {fill:#FFFFFF;}
.cls-2 {fill:#15D7F5;}
.cls-3 {fill:#F92695;}
.cls-4 {fill:#FFCE2B;}
.cls-5 {fill:#FE369A;}
.cls-6 {fill:#C11576;}
.cls-7 {fill:#F4E8CB;}
.cls-8 {fill:#B5A48D;}
.cls-9 {fill:#DB8328;}
.cls-10 {fill:#12A6E0;}
.cls-11 {fill:#C6D6E0;}
.cls-12 {fill:#DDE7F0;}
.cls-13 {fill:#405761;}
.cls-14 {fill:#677882;}
.cls-15 {fill:#F7CEE5;}
.cls-16 {fill:#F9E6D2;}
.cls-17 {fill:#111111;}
.cls-18 {fill:#FFEADE;}
.cls-19 {fill:none;stroke:#231F20;stroke-width:0.7258;stroke-linecap:round;stroke-linejoin:round;stroke-miterlimit:10;}
.cls-20 {fill:#FFD1E1;}
.cls-21 {fill:#DA1C82;}
.cls-22 {fill:#FDCE29;}
.cls-23 {fill:#FFC1D1;}</style><defs><linearGradient id="pg" x1="0" y1="0" x2="1" y2="1"><stop offset="0" stop-color="#F92695"/><stop offset="1" stop-color="#15D7F5"/></linearGradient></defs><rect x="0" y="0" width="64" height="64" rx="14" fill="url(#pg)"/><g transform="translate(-74.39 7.60) scale(0.8383)">
  <path class="cls-2" d="m148.4 33.1c-4.4 0.9-6.9 4.9-6.9 4.9l-0.2 1c2.1-1 4.4-1 6.3-1 6.1 0 7-4.8 2.8-5l-2 0.1z"/>
  <path class="cls-2" d="m138.4 49.8c-3.3-2.2-6.6 0.6-6.8 0.8l0.2-0.2c-1.1-0.4-2.2-0.8-3.4-1.1 1.7-2.8 9-4.6 10.5-5.1 2.7-1.1 2.2-3.3 0.4-3.1-2.2 0.2-3.6-1.5-0.9-4.3 0.9-0.9 3.1-2.6 4.3-3.3l-6.6 1.6-7.6 6.5-7.4 8-8 4.6c3-1.2 6.2-1.2 10 2.3 0.8-3.2 3-6.3 9.3-3.5 2.1-2.4 3.2-3 6-2.6v-0.6z"/>
  <path class="cls-2" d="m143.1 6c1.5-0.9 5.5-3.1 3-3.9-2-1.7-6 3.5-3 3.9z"/>
  <path class="cls-2" d="m149.6 21.4c1.1-0.8 3.9-1.3 3.6-2.8-0.8-1.6-2.5 1.4-3.6 2.5v0.3z"/>
  <path class="cls-2" d="m148.6 27.6c-2 2 0.5 3.3 2 1.5 2.8-1 1-3.7-2-1.5z"/>
  <path class="cls-3" d="m147.4 10.4c1.5-2 4.1-1 2.5 1.6-1.5 1.9 0.5 2.1 0.7 3.6 0 1.8-2.5 3.8-3.5 2-1 0 0.8-4 0.3-7.2z"/>
  <path class="cls-3" d="m151.9 7.9c2-1.4 5.7-2 5-4.4-1.3-3.5-5 0.5-5 4.4z"/>
  <path class="cls-4" d="m138.5 46.6v0.3c4.1 0 6 2.7 8.1 2.1 2.5-1.4 1-4.4-3.1-3.9-2 0-3.9 0.8-5 1.5z"/>
  <circle class="cls-2" cx="105.6" cy="20.6" r="1"/>
  <circle class="cls-10" cx="149.6" cy="41.9" r=".9"/>
  <circle class="cls-3" cx="154.5" cy="12.1" r=".7"/>
  <circle class="cls-3" cx="154.6" cy="23.4" r="1.1"/>
  <path class="cls-5" d="m138.1 25 4-0.9c-2 1.5-7 4-9.5 7 1.3-0.5 2.5-0.5 3.5-0.2-2.7 1.2-7 4.7-10.5 7.7l-14.1-13.5c3.6-5.7 7.9-11.5 14.6-11.6-1.5 0.9-3.2 2.9-3.7 4.1 7-5 10.7-0.6 17.5-2 2.2-0.5 5.7-2 5.7-2 0 4.5-3.5 9.3-7.5 11.4z"/>
  <path class="cls-6" d="m133.6 18.6c2.8 1 8-1 9.5-2-2 5.3-8 6.5-12.2 9.8h2.7l-4.5 6.2 3.5-1.5 3.5-0.2-4.5 2.7-6 5-6.5-7.2c4-0.3 6.5-3.3 8.5-5.3l-4.5 6.8c3.5-0.3 10.3-6.5 10.3-6.5l-6.8 2.1c1.3-2.4 3.5-5.4 7-6.4l-13.5 3.3c2-3 4.3-5.3 6.8-7.3-3.3 0-8.3 3.8-8.3 4l2-4c-1.5 1-2.5 1.5-4 3.3 1.5-4.3 6.8-7.5 9.5-7.8-1.2 0.8-3 3-4 4.3 5.5-3.9 11-0.8 19-2.3-1.5 1-6 3-7.5 3z"/>
  <path class="cls-7" d="m111.6 25.1 2-3.2c2.5-3.3 6.5-8.3 12.5-8.3-2 0.8-3.7 3-4.2 4.3 4.5-3.3 9.7-2.8 12.7-2.3-4 1-8 0.8-12.5 2.3 1.8 0 3.3 0 4.8 0.2-2.8 1.5-6.8 7.3-6.8 7.3 3.5-1.8 9-3.5 12.3-3-2 1-4.5 3.7-5.8 6.1 0-0.6 2.5-2.1 6.8-2.1l-4.3 6.2c1.5-0.7 6-2 7-1.7-2.7 1-7 4.2-10.5 7.7-2.5-3.5-9-11-14-13.5z"/>
  <path class="cls-8" d="m125.6 38.6c2.5-1.7 8-6.7 10.5-7.7-1-0.3-2-0.3-3.5 0.2l-1.5 0.5 2.5-5.2c-2.5-0.3-5 0.7-7 2.1l1-2.4c-2 1.8-4.5 4.5-8.2 5l6.2 7.5z"/>
  <path class="cls-5" d="m137.9 24.9 2.7-0.5c-2.7 1.7-6.5 3.7-8 6.7l3.5-1.2 5 1c-3.7 0.5-8.5 4-14.5 9.2l-5.7 6c-1.8 1.3-4-1.5-8.5-1l-1.8 2.3h1c2.3 1.6 3.5 3.6 1.8 6.7l9.5-4.5 2.7-3c4-1.2 6.8-1 7.8-4.7 2.2-5.8 8-7.8 12.2-10l0.8-1.8-1.3-2h-1.5-0.5c1.5-1.5 6-3.5 5-5.7-1.5-2-2.5-0.5-3.5 0.7l1 0.3c-0.5 1.5-7.5 5.2-7.5 5.7l3.5 1.8-3.7-6z"/>
  <path class="cls-4" d="m106.1 32.1c0.3 1.8 1.5 5.8 1 7.5-4 4.3-11 7-10.2 12.5 1 3.5 5.2 3 6.7 2l4-4 4-6 6-0.5 2 0.8c-2.5-4.8-8.5-10.3-13.5-12.3z"/>
  <path class="cls-9" d="m102.6 52.1 0.5 2c-3 1.5-6.2 0.8-6.2-2.2 1.2 1.7 4.2 1.7 5.7 0.2z"/>
  <path class="cls-9" d="m111.6 41.9v1.7l-5.5 8-2.5 2-1-1.5c2.8-1.5 7-9 9-10.2z"/>
  <path class="cls-9" d="m113.1 41.4 5.8 0.7 0.5 2c-1.5-0.5-4-1-7.3-0.7l-0.5-1.5 1.5-0.5z"/>
  <path class="cls-11" d="m105.6 31.1 4.3-5.5c3.2-0.6 13.5 7.8 15.2 14.3l-4.7 4.7c-3-5-8.8-10.7-14.8-13.5z"/>
  <path class="cls-12" d="m108.6 27.6 2.5-1.5 5 2.5-1.5-1-3 1.5-2.5-1.2"/>
  <path class="cls-13" d="m109.1 27.1 4.5 1.9c4 2.6 9.3 7.6 10.5 12.1l-3.5 3.5c-1.5-3.2-7-10.2-14-13.5l2.5-4z"/>
  <path class="cls-14" d="m113.4 29.1 5.5 4-3.3 3-4.5-3.2 2.3-3.8z"/>
  <path class="cls-11" d="m106.6 31.1 3-3.5 3.8 1.5-3 3.8-3.8-1.8z"/>
  <path class="cls-14" d="m117.9 38.6 2.2-2.5 3 3.5-3 2.3-2.2-3.3z"/>
  <path class="cls-14" d="m122.6 37.1 0.8-0.5 1.2 3-1 0.8-1-3.3z"/>
  <path class="cls-16" d="m113.4 26.6 3.5-3.2-2.3 4.2"/>
  <path class="cls-17" d="m109.6 24.6-5.5 5.8c-0.7 1 0 3.2 0 3.2 5.5 2.5 11.8 7.8 15 12.5h2l5.5-5.5v-1c-2.5-5.2-9.2-12.5-15.7-15.5l-1.3 0.5zm-4 6.4 4.8-5.1c3.7 0.5 13 8.5 14.5 14l-4.8 4.7c-2-4.2-8.2-10.7-14.5-13.6z"/>
  <path class="cls-19" d="m109.4 27.1c4.5 1 12.5 9 14.5 12.8"/>
  <path class="cls-17" d="m102.1 52.1c1.5-1 0-3.5-1.5-4-2.2 0.8-2 4.3 1.5 4z"/>
  <path class="cls-9" d="m106.6 33.1c1.3 1 2 3.5 1.5 4.3-0.2-1.5-1.5-3.8-1.5-4.3z"/>
  <path class="cls-18" d="m107.6 35.6c0.8 2 1 3.5 0 4.8l-7.2 6.7c-1.3 1-2.8 2.8-2.3 4-1-1.2 0.5-3.2 2-4.5l6.8-6.2c1-1 1.2-2 0.7-4.8z"/>
  <path class="cls-19" d="m102.6 52.4 0.5 1.6"/>
  <path class="cls-16" d="m134.1 15.6c-3.5-0.5-7.5-1-11.7 2 4.2-1.7 8.5-1.5 10.7-1l6.8-1c-2 0.3-3 0.3-5.8 0z"/>
</g></svg>