<svg xmlns="http://www.w3.org/2000/svg" viewBox="1.4 0.2 157.1 105.2">
<!-- SVG created with Arrow, by QuiverAI (https://quiver.ai) -->
  <style type="text/css">.cls-0 {fill:#09151F;}
.cls-1 {fill:#FFFFFF;}
.cls-2 {fill:#15D7F5;}
.cls-3 {fill:#F92695;}
.cls-4 {fill:#FFCE2B;}
.cls-5 {fill:#FE369A;}
.cls-6 {fill:#C11576;}
.cls-7 {fill:#F4E8CB;}
.cls-8 {fill:#B5A48D;}
.cls-9 {fill:#DB8328;}
.cls-10 {fill:#12A6E0;}
.cls-11 {fill:#C6D6E0;}
.cls-12 {fill:#DDE7F0;}
.cls-13 {fill:#405761;}
.cls-14 {fill:#677882;}
.cls-15 {fill:#F7CEE5;}
.cls-16 {fill:#F9E6D2;}
.cls-17 {fill:#111111;}
.cls-18 {fill:#FFEADE;}
.cls-19 {fill:none;stroke:#231F20;stroke-width:0.7258;stroke-linecap:round;stroke-linejoin:round;stroke-miterlimit:10;}
.cls-20 {fill:#FFD1E1;}
.cls-21 {fill:#DA1C82;}
.cls-22 {fill:#FDCE29;}
.cls-23 {fill:#FFC1D1;}</style>
  <defs><mask id="b-counter"><rect x="1.4" y="0.2" width="157.1" height="105.2" fill="#fff"/><ellipse cx="22" cy="54" rx="6.2" ry="3.8" fill="#000" transform="rotate(-34 22 54)"/></mask></defs>
  <g mask="url(#b-counter)">
  <path class="cls-2" d="m148.4 33.1c-4.4 0.9-6.9 4.9-6.9 4.9l-0.2 1c2.1-1 4.4-1 6.3-1 6.1 0 7-4.8 2.8-5l-2 0.1z"/>
  <path class="cls-2" d="m138.4 49.8c-3.3-2.2-6.6 0.6-6.8 0.8l0.2-0.2c-1.1-0.4-2.2-0.8-3.4-1.1 1.7-2.8 9-4.6 10.5-5.1 2.7-1.1 2.2-3.3 0.4-3.1-2.2 0.2-3.6-1.5-0.9-4.3 0.9-0.9 3.1-2.6 4.3-3.3l-6.6 1.6-7.6 6.5-7.4 8-8 4.6c3-1.2 6.2-1.2 10 2.3 0.8-3.2 3-6.3 9.3-3.5 2.1-2.4 3.2-3 6-2.6v-0.6z"/>
  <path class="cls-2" d="m109.4 17.6c1.1-3.2 3.7-4.1 4.1-5 2.4-1.7 0-5.2-2.6-3-2.8 2.5-3 6.8-2.5 8.3l1-0.3z"/>
  <path class="cls-2" d="m143.1 6c1.5-0.9 5.5-3.1 3-3.9-2-1.7-6 3.5-3 3.9z"/>
  <path class="cls-2" d="m149.6 21.4c1.1-0.8 3.9-1.3 3.6-2.8-0.8-1.6-2.5 1.4-3.6 2.5v0.3z"/>
  <path class="cls-2" d="m73.1 97.9 27.5-4.1c-6-1.2-12.5 0.4-27.5 4.1z"/>
  <path class="cls-2" d="m122.4 90.4c2.7 2.2 8.5 3.1 9.2 0.7 0-1.2-1.2-2-2.5-1.2-2.2 0.7-4 1-6.7 0.5z"/>
  <path class="cls-2" d="m148.6 27.6c-2 2 0.5 3.3 2 1.5 2.8-1 1-3.7-2-1.5z"/>
  <path class="cls-2" d="m103.6 27.9c-1.5-2.5-5.2-5.9-11.1-5.5 0.9-3.3-0.9-7-6.9-8.3-4.7-0.7-6.6 1.5-8 3.5-3.2-1.6-6.6-2.2-9.2 1.5-3.3-1.5-7-2.5-9.7 2l-2.1 5.9c-3.2-0.6-6.2 1.5-7.2 5.1-2.8-1.1-5.8-1.5-8.7 0.4-0.3-4.1-4.3-7.4-6.6-8.6-2.5-1.3-6-2-11-0.9-7.5 2-17.7 8.6-18.4 16.6-0.3 3.8 1.9 7.8 4.4 8.5l-1.2 5c-4.8 0.5-7.8 9-1 15.9 3.7 3.6 7.2 4.6 11.5 3.9-0.3 4.7 2.7 7.7 5.7 9.3-1 3.9-2.5 9.4-2.6 11.4 0 2.5 1.1 6.3 4.6 8.3 5.8 3.5 11 2 11.8-2.9-0.2-3.1 0.2-4.4 0.5-6.4 2-0.5 5.7-3 6-3.2 1.7 3.5 5 6 9.7 6.2 2.5 0 4.5-0.5 5.9-2.5 3.6 1.5 7.4 2 9.6-1 2 0.9 7 1.3 8.9-1 3.6 1 6.4-0.5 7.1-2l1.8-4-1.3-1.5-1.7 4c-1.3 2-3.9 2.8-6.5 1.4-1.3 2.1-4.8 3.1-8.9 1.1-2.1 3.5-5.4 3.5-9.6 0.5-1.5 2.9-3.3 4-7 3-4-1-6.8-3.7-6.8-7.7-2.5 2.1-5.5 4.2-9 5.1-0.5 2.1-1 4.9-0.5 7.6-0.5 4.3-6.5 5-10.2 1.4-1.8-1.4-2.8-4.4-2.5-7 0.7-3.9 3-12.1 3-12.1-4-0.3-7.5-5.3-5.8-10.3-4.5 1.5-10 2-13.7-3-4.3-5-3.3-12 2-12.5l2-8.2c-3 0.2-5.8-4.3-4.3-8.4 2.3-6 12.5-14.1 21.8-14.1 5.5-0.4 11.5 4.5 11 11.7 3-3.2 6.5-4.7 11-1.5l1-0.5c-0.3-3.7 2-6.7 6.5-5.1l2.5-7.1c1.7-3.4 5.2-3.4 8.7-0.3 1.8-4.2 4.5-5 9.3-1.7l1.5-2.3c1.7-2.2 4.5-2.7 8.2-1 2.8 1.3 3.5 3.8 2.3 5.8l-1.8 3.5c5.5-4.5 14-0.5 14 6.7l1.4 0.4-0.1-1.9 5.2-7.2 0.5 0.2c2-3.5 5.8-9 8.8-10.1 3-1.9 8.2-2.6 12.7-2.4l0.8 1c3.5 0.4 7.7 2.8 15.2-2.2 0-1.3-0.2-2.8-1.5-1.4-2.5 2.6-6.2 4-12.2 2.6-0.3-2.6-4.3-2-6.8-1.7-8.5 0.5-12 5.1-18 12.6-1.2 0.9-3 3.9-5 5.4z"/>
  <path class="cls-3" d="m147.4 10.4c1.5-2 4.1-1 2.5 1.6-1.5 1.9 0.5 2.1 0.7 3.6 0 1.8-2.5 3.8-3.5 2-1 0 0.8-4 0.3-7.2z"/>
  <path class="cls-3" d="m151.9 7.9c2-1.4 5.7-2 5-4.4-1.3-3.5-5 0.5-5 4.4z"/>
  <path class="cls-4" d="m138.5 46.6v0.3c4.1 0 6 2.7 8.1 2.1 2.5-1.4 1-4.4-3.1-3.9-2 0-3.9 0.8-5 1.5z"/>
  <path class="cls-4" d="m15.5 75.4c-2.6 1-3.9 1-5.5 1-2.4 0-3.4 4 0.4 3.6 2.5-0.4 4.5-2.9 5.1-4.6z"/>
  <path class="cls-4" d="m102.1 22.6c-0.6-3.2 1.8-6 0-7.6-1.7-1.6-4.6 1 0 7.6z"/>
  <circle class="cls-4" cx="47.4" cy="24.1" r="1.4"/>
  <circle class="cls-4" cx="16.6" cy="81.9" r=".8"/>
  <circle class="cls-2" cx="44.9" cy="97.4" r=".8"/>
  <circle class="cls-2" cx="105.6" cy="20.6" r="1"/>
  <circle class="cls-10" cx="149.6" cy="41.9" r=".9"/>
  <circle class="cls-3" cx="154.5" cy="12.1" r=".7"/>
  <circle class="cls-3" cx="154.6" cy="23.4" r="1.1"/>
  <path class="cls-3" d="m133.9 85.1c-0.3 2.3 3 2.8 3.7 0.5 0-2.2-3-3.2-3.7-0.5z"/>
  <circle class="cls-3" cx="137.1" cy="79.9" r="1"/>
  <circle class="cls-3" cx="117.9" cy="93" r="1.4"/>
  <path class="cls-3" d="m30 44.9c9.6-9.3 6.1-16.4 0.1-17.9-7-1.4-17.7 5-20.7 11.1-1.8 4.5 1 6 1.2 5.5 0.5-3 5.3-7 7-8-1.2 3-5.7 18.8-6 21.4 0 3 4.3 4.6 4.5 4.6-4 1.8-7.5-0.2-7.5-3.7l-0.6 0.1c-2.4 2.4 0.9 10.1 7.1 10 6.8 0 19-6.4 19.3-16.4 0-4.2-4.4-6.7-4.4-6.7zm-12.4 20h-0.5l1-0.4-0.5 0.4zm0-9.5-1 1.7 1-1.7zm4.8-10.4 1-1 0.2 0.4-1.2 0.6zm2.7-1.6c-0.7-0.5 2-1.8 2-2 1 1.2-1.5 2.2-2 2zm2.5-2c-1-0.5 4.3-3.8 4.5-7.8 0.5 2.3-3.5 8.3-4.5 7.8zm-6.5-7.8c2-1.5 6.5-3.2 8.8-3 4.7 1-0.3 9-9 14.3 1.2-5.9 2.7-8 2.5-9.3-0.3-1.2-1.3-1.7-2.3-2z"/>
  <path class="cls-5" d="m10.1 41.6v-0.2c-1.5-6 14-14.8 20.8-13.3l0.7 0.5v0.3c-6.5-2.3-21.5 6-21.5 12.7z"/>
  <path class="cls-4" d="m27.6 27.4c-6.5 0-17.5 6.5-18.5 12.6-0.2 1.9 0.5 1.6 0.8 1.6-1.3-6.6 15.2-14.6 20.5-13l1.2 0.3c0.8-0.8-1.2-1.5-4-1.5z"/>
  <path class="cls-2" d="m41.6 60.1c-8-0.2-16.5 6.5-18.2 11.9-0.8 3.6 2.2 5.6 3 5.4 0-1.3 0-1.8 0.7-2.8 2.3-3.2 4-4.7 6-6.1-1.5 5.5-6.7 21.1-6.7 25.4 0 4 6.7 6 6.2 3.5s1-9.5 1.3-9.5c7.7-0.3 15.7-9.3 16.7-16.5 1-6-4-11-9-11.3zm-6.2 21.5 3.5-11.5c0.7-2.7-2.3-3.5-3.3-3.1 4.5-2.4 10-3.6 10.8-1 1.7 5.6-6 14.6-11 15.6z"/>
  <path class="cls-2" d="m137.1 53c-1.5 0-1.5 0-4 3.6l-3.1 6.8 1.5-6.4c0.6-1.4-4.4-4-5.1-1.4l-2.5 11c-1.8 4-5.3 8.8-8.8 9-2.5 0-2.5-4-2-5 4.3 3.8 9.5-3 9.5-8.5 0-4.1-6-7.7-10-3.1 1-2.6-2-2.9-3.7-2.6l2-5.4-1.5-1.6c-1.3 2.7-3.3 5.2-6.3 7.2l-0.5 1.4c-2.2 0.4-4 0.6-5.5 0.6-1 0-1.2 3.5 1 3.8l3-0.4-2.5 9.4c-0.7 2.6-4 8-4.7 8-1-2.8 3.2-12.5 3-14.3-0.3-1.5-3.8-3.7-5.5-2.2-2.3 1.7-5.8 7.7-7.8 10.7l2.5-7.2c0.8-1.8-4-4.3-4.7-2l-3.3 11c-1.2 3.2-4 7-4.7 6.7-0.5-2.7 2.2-11.5 3.2-14.5 1-1.2-2.5-2.5-3.7-1.6-1.5 1-3 6.6-4 10.4-1.3 3-4 7.2-4.8 7.2 0-4.5 3-10.5 3.8-13 0.5-1.6-3.5-2.6-4.3-0.5-5.2-4-8.5-4-13 6.9-3.2 8.9-3.2 11.6 3 13.4 1 0 1.5 0 2.3-1l3.2-5.8c0 3.3 1.5 4.8 5 5.4 1 0 1.5 0 1.8-1l2-4.4c0.7 3.3 3.7 4 5.7 3.8 2.3-0.3 2.5-1.8 3.3-3.8 0.2 1.8 4.5 3.3 4.7 1.5 2-5.5 6.5-14 8.8-16.5-3 10-3.8 14.5 3.2 15.3 1.5 0 1.5-0.8 2-1.8l1.8-3.1c-0.8 4.6 1.7 6.4 5.2 6.4 1.5-0.4 1-0.8 0.5-2-0.5-4.8 2.5-17.4 4.3-22.8l4.2-0.5c-5.5 7.9-6.5 19.5 2 19.9 4.3 0.4 6.5-2.4 8.5-5.4l-0.2 1.5c0.2 2 5.5 3.5 5.5 2 0.7-5.5 5.2-14 8.7-18.1-1 4.1 0 6.4 2.5 6.6 1 0 1.3-0.7 1-1.5 0-1.5 1.5-7 2.3-8.5 0.5-1.6-3-3.5-4.8-3.6zm-83 32.1c0-3.2 4.5-13.5 6-13.7 1-0.4 2 0.7 2 1-3 5.2-7 12.7-8 12.7zm59.5-16.5c1-3.6 4-8.5 5-8.2 0.8 2-2 8.2-5 8.2z"/>
  <path class="cls-5" d="m138.1 25 4-0.9c-2 1.5-7 4-9.5 7 1.3-0.5 2.5-0.5 3.5-0.2-2.7 1.2-7 4.7-10.5 7.7l-14.1-13.5c3.6-5.7 7.9-11.5 14.6-11.6-1.5 0.9-3.2 2.9-3.7 4.1 7-5 10.7-0.6 17.5-2 2.2-0.5 5.7-2 5.7-2 0 4.5-3.5 9.3-7.5 11.4z"/>
  <path class="cls-6" d="m133.6 18.6c2.8 1 8-1 9.5-2-2 5.3-8 6.5-12.2 9.8h2.7l-4.5 6.2 3.5-1.5 3.5-0.2-4.5 2.7-6 5-6.5-7.2c4-0.3 6.5-3.3 8.5-5.3l-4.5 6.8c3.5-0.3 10.3-6.5 10.3-6.5l-6.8 2.1c1.3-2.4 3.5-5.4 7-6.4l-13.5 3.3c2-3 4.3-5.3 6.8-7.3-3.3 0-8.3 3.8-8.3 4l2-4c-1.5 1-2.5 1.5-4 3.3 1.5-4.3 6.8-7.5 9.5-7.8-1.2 0.8-3 3-4 4.3 5.5-3.9 11-0.8 19-2.3-1.5 1-6 3-7.5 3z"/>
  <path class="cls-7" d="m111.6 25.1 2-3.2c2.5-3.3 6.5-8.3 12.5-8.3-2 0.8-3.7 3-4.2 4.3 4.5-3.3 9.7-2.8 12.7-2.3-4 1-8 0.8-12.5 2.3 1.8 0 3.3 0 4.8 0.2-2.8 1.5-6.8 7.3-6.8 7.3 3.5-1.8 9-3.5 12.3-3-2 1-4.5 3.7-5.8 6.1 0-0.6 2.5-2.1 6.8-2.1l-4.3 6.2c1.5-0.7 6-2 7-1.7-2.7 1-7 4.2-10.5 7.7-2.5-3.5-9-11-14-13.5z"/>
  <path class="cls-8" d="m125.6 38.6c2.5-1.7 8-6.7 10.5-7.7-1-0.3-2-0.3-3.5 0.2l-1.5 0.5 2.5-5.2c-2.5-0.3-5 0.7-7 2.1l1-2.4c-2 1.8-4.5 4.5-8.2 5l6.2 7.5z"/>
  <path class="cls-5" d="m137.9 24.9 2.7-0.5c-2.7 1.7-6.5 3.7-8 6.7l3.5-1.2 5 1c-3.7 0.5-8.5 4-14.5 9.2l-5.7 6c-1.8 1.3-4-1.5-8.5-1l-1.8 2.3h1c2.3 1.6 3.5 3.6 1.8 6.7l9.5-4.5 2.7-3c4-1.2 6.8-1 7.8-4.7 2.2-5.8 8-7.8 12.2-10l0.8-1.8-1.3-2h-1.5-0.5c1.5-1.5 6-3.5 5-5.7-1.5-2-2.5-0.5-3.5 0.7l1 0.3c-0.5 1.5-7.5 5.2-7.5 5.7l3.5 1.8-3.7-6z"/>
  <path class="cls-4" d="m106.1 32.1c0.3 1.8 1.5 5.8 1 7.5-4 4.3-11 7-10.2 12.5 1 3.5 5.2 3 6.7 2l4-4 4-6 6-0.5 2 0.8c-2.5-4.8-8.5-10.3-13.5-12.3z"/>
  <path class="cls-9" d="m102.6 52.1 0.5 2c-3 1.5-6.2 0.8-6.2-2.2 1.2 1.7 4.2 1.7 5.7 0.2z"/>
  <path class="cls-9" d="m111.6 41.9v1.7l-5.5 8-2.5 2-1-1.5c2.8-1.5 7-9 9-10.2z"/>
  <path class="cls-9" d="m113.1 41.4 5.8 0.7 0.5 2c-1.5-0.5-4-1-7.3-0.7l-0.5-1.5 1.5-0.5z"/>
  <path class="cls-5" d="m87.4 19.1c-1.3-0.7-3.8-2-5.8 0.3-1.2 2.2-2.7 5.7-3.5 8.7h-2.5l1.8-4.5c0.5-1.7-4.3-4.5-5.3-2.2l-2.5 8-3 0.5 1.5-4.9c-0.5-1.4-4.5-4.4-5.5-1.6l-2.5 7.7c-1.7 0.5-3.2 0.8-5 0.5-1.5 1.3-0.7 4.8 1.5 4.3l2-0.5-2.2 8.5c-1.3 3-4.5 7.5-5.5 7.5-0.5-3 3.7-11 4.2-13.3 0-1-3-2.2-4.7-0.1-6.3-5-8.5-2.4-11.5 3.6-1.8 4-3.3 8.8-3 12 0.2 3 5 5.4 6.7 4 1.5-1.7 3.8-7 3.8-7-0.3 3.5 1.7 6.3 5.7 6 1 0 2.5-4.2 2.5-4.5-0.7 5.5 4.8 7.5 6.8 6.3v-0.8c-2.3-2 2.2-20 3.5-23.2l3.2-0.8-2.7 11c-0.5 3-1 7-0.5 9 1 3 6.7 4 6 2-2-2.5 1.7-19.5 3.5-23.2l2.7-0.3c-1 5-3 13.5-2 16.5 0.5 2 4.5 4.3 6.8 3.3 1.2-0.8 2.2-4.3 3-6.3 1.7 4 6.5 4.4 10 2.5l5-5.1c1.2-1.4 3.7-7.4 2.2-7.6h-0.7c-2 5.2-6.8 9.7-9.8 9.6-1.5-0.4-2-2-1.5-4.9 4.3 3.8 9.5-3.2 9.3-8.7 0-2.8-4.3-6.3-7.8-4-3.5 1.7-6.7 8-7.5 14l-1 2.5-2.5 3.5c-1.5-2 3.8-22 6.8-26.8 0.5-0.6 0.5-1.2 0-1.5zm-46.3 33.3c0-2.5 4.5-12.8 6-13 1-0.3 2 0.7 2 1-3 4.7-7 12-8 12zm49.3-14.3c1-3.2 4-8.2 5.2-8.2 0.5 2-2.2 8.2-5.2 8.2z"/>
  <path class="cls-6" d="M30.2 57.9C31.2 57.3 32.5 56.3 33.4 55C31.1 61.1 22.6 68 14.6 68C11.1 68 8.1 65 7.6 61.6C10.4 66.9 19.4 67.9 29.4 59.4H29.1C27.1 60.6 19.6 65.9 11.9 65.9C12.6 67.1 17.1 68 24.1 64.6C28.1 62.6 29.9 60.1 30.1 59.4C30.2 58.9 30.2 58.4 30.2 57.9Z"/>
  <path class="cls-6" d="m54.9 52.1-1.3 4c-1.5 1.5-7 0.3-7-5l0.3-0.7h0.2c-0.2 3.2 2 5 5 5l2.8-3.3z"/>
  <path class="cls-6" d="m60.9 56.6 0.5 1.5c-2.3 1.3-7-0.5-6.5-5.5l0.2-0.7 0.8-0.8c-0.5 5.3 3.7 7.3 5 5.5z"/>
  <path class="cls-6" d="m65.1 49.4h0.3c1 2.5 1.7 2.7 3 3 0.2-2 0-5.3 2.5-14.5l-1 11.2 0.5 4.5 0.5 2.8c-1.3 0.7-6 0.2-6.3-3.4l0.5-3.6z"/>
  <path class="cls-6" d="m76.1 47.6h0.3l1.2 1c0.8-6.2 2.5-13.7 4.8-19.2l-2.8 16.6c0 1.1 0.8 1.6 1.5 1.6l3.5-1c-0.5 1.5-1.5 4.8-3 5.5-2 0.5-6.2-0.5-6.2-3.7l0.2-1 0.5 0.2z"/>
  <path class="cls-6" d="m85.6 44.1 0.5-0.5c1 1.8 4 1.4 4.5 1l2 0.8-1.5 2c4 0.2 8.5-3.8 11.3-9.8l-7.5 10.5c-3 1.3-9.5 1.9-9.8-2.7l0.5-1.3z"/>
  <path class="cls-10" d="m49.6 83.6-0.5 1.5c0 3.5 2.8 4.8 5.5 5 1.3 0 4.3-5.7 5-7.5l0.3 1c0.2 3.5 2.2 4.8 5 5.3 1 0 3-5.3 3.5-6.3v0.5c0.7 3.5 3.5 4.3 5.5 4.3 2-0.3 3-2.8 3.5-4.3v0.3c0.2 2 3.7 2.5 4.2 2 1-2.8 3.3-8 3.5-9.3l-0.5-0.1c-1.2 0-3 2.6-3.2 2.6v-1.2h-0.8l-1.5 5.2-0.5-2.7-1.7 0.7-3.5 2.5c-1.3 0.3-1.3-4-1-4.5h-0.5c-0.8 0.5-2.5 4-2.8 4l0.8-3.5h-1l-0.5 1h-0.8l-3 3.5h-0.7v-2l0.2-2.2h-0.7l-1.3 1.5-0.5-1h-0.5l-1.7 1.2c-2.5 0-4.5 4-5.5 4l0.2-3.2-1-0.3-3.5 2z"/>
  <path class="cls-10" d="m90.1 75.1 0.5 2.5 0.8-2.7 1.7-0.3v4.5l0.8 0.3c1 0 3-3.3 3.7-4.3h0.8l0.7-1.7h0.5l-0.5 4.7 0.5 3.5 3-13.5-0.5 4.3 1.5-0.3c-0.7 4-1.5 11-0.2 12.5-1.5 1.3-6 0-6-3v-3l-2.5 4.8c-1 1-6.3 0.2-6.3-3.5l0.5-4.3 1-0.5z"/>
  <path class="cls-10" d="m107.6 71.9v1.7c0.5 4.5 4.5 7 8.5 6 3.3-0.5 6.3-5 6.5-6l-0.5 2.8 0.5 0.2c1 1.5 4.5 2 4.5 1.5l3-10.2-2.5 1.5c0 1.2-3.2 2.2-3.2 2.2l1.7-3.7-2.2 2.5c-3 1.2-4.3 5-8.3 5.2-1.5 0-3.2-0.7-3.5-0.7l-0.5 0.5c-2.2-0.5-2.5-3.8-2.5-3.8l-1.5 0.3z"/>
  <path class="cls-5" d="m75.4 55.4c-1 1.2-2.8 5.2-1.3 6.7 1 1 2.8 1.3 3.5 0.8 0-3.5 2.3-6 2.5-7 0.3-1.9-3.5-2.3-4.7-0.5z"/>
  <path class="cls-3" d="m94.6 52.4-3.5 0.6-0.5 1.6-8.5 5.3v0.5c2 0 3.5-0.5 5.5-1.4l8.5-2.9c-1.2-0.7-1.7-2.7-1.5-3.7z"/>
  <path class="cls-5" d="m94.1 88.1"/>
  <path class="cls-5" d="m125.6 82.4c-1 0-3-1.3-4-1.8-4 3.5-9.5 4.8-15.2-0.5-0.3 2.5 0.5 2 0.7 4.3 0 5.2-7.5 5.5-10.2 2.5-1.8 1.2-5.3 1.7-9.5-1.5l-1.8 3.7c-1.5 2-4.2 2.5-7.2 2l-3.8 2 0.3 0.5-28.8 8c17.3-4.2 37-8.2 53.3-10.2 3.2-0.3 5.7 1.2 5 4.5-0.5 2-1.3 6.5 2 6.7 2.7 0.3 3.2-3.2 1.7-6.5-2.5-8 5.5-7.1 8.5-7.2 4-0.3 8.8-1 9-4.8v-1.7z"/>
  <path class="cls-2" d="m133.6 70.1"/>
  <path class="cls-2" d="m136.6 48.1c-2.5-0.2-4.2 1-5 2.3l0.5 0.2v1c2-2.2 3.5-2.5 6.5-1.5 6 2 7 4.8 5.5 8.5-0.5 2-1.5 3.8-1.5 7.3-0.2 4.2-5.7 5.7-8 2.7-2 3-4 8.3-4 11-1 3.3-6 3-6.5 2.5l1.5 2c3.5 0 6.5-1 7-5.1 0-1.9 1.5-5.6 2.8-7.9 3.7 2.8 9.5 0 9.2-5.5 0-3.7 2.8-7 1.8-10.6-1-3.1-5-6.4-9.8-6.9z"/>
  <path class="cls-11" d="m105.6 31.1 4.3-5.5c3.2-0.6 13.5 7.8 15.2 14.3l-4.7 4.7c-3-5-8.8-10.7-14.8-13.5z"/>
  <path class="cls-12" d="m108.6 27.6 2.5-1.5 5 2.5-1.5-1-3 1.5-2.5-1.2"/>
  <path class="cls-13" d="m109.1 27.1 4.5 1.9c4 2.6 9.3 7.6 10.5 12.1l-3.5 3.5c-1.5-3.2-7-10.2-14-13.5l2.5-4z"/>
  <path class="cls-14" d="m113.4 29.1 5.5 4-3.3 3-4.5-3.2 2.3-3.8z"/>
  <path class="cls-11" d="m106.6 31.1 3-3.5 3.8 1.5-3 3.8-3.8-1.8z"/>
  <path class="cls-14" d="m117.9 38.6 2.2-2.5 3 3.5-3 2.3-2.2-3.3z"/>
  <path class="cls-14" d="m122.6 37.1 0.8-0.5 1.2 3-1 0.8-1-3.3z"/>
  <path class="cls-16" d="m113.4 26.6 3.5-3.2-2.3 4.2"/>
  <path class="cls-17" d="m109.6 24.6-5.5 5.8c-0.7 1 0 3.2 0 3.2 5.5 2.5 11.8 7.8 15 12.5h2l5.5-5.5v-1c-2.5-5.2-9.2-12.5-15.7-15.5l-1.3 0.5zm-4 6.4 4.8-5.1c3.7 0.5 13 8.5 14.5 14l-4.8 4.7c-2-4.2-8.2-10.7-14.5-13.6z"/>
  <path class="cls-19" d="m109.4 27.1c4.5 1 12.5 9 14.5 12.8"/>
  <path class="cls-17" d="m102.1 52.1c1.5-1 0-3.5-1.5-4-2.2 0.8-2 4.3 1.5 4z"/>
  <path class="cls-9" d="m106.6 33.1c1.3 1 2 3.5 1.5 4.3-0.2-1.5-1.5-3.8-1.5-4.3z"/>
  <path class="cls-18" d="m107.6 35.6c0.8 2 1 3.5 0 4.8l-7.2 6.7c-1.3 1-2.8 2.8-2.3 4-1-1.2 0.5-3.2 2-4.5l6.8-6.2c1-1 1.2-2 0.7-4.8z"/>
  <path class="cls-19" d="m102.6 52.4 0.5 1.6"/>
  <path class="cls-20" d="m113.4 87.6c4.2 0 7.5-1 9.5-2.7 1.7-1.3 1 1.5-2 2l-7.5 0.7z"/>
  <path class="cls-23" d="m105.1 96.6c-0.5 4 1 5 2 4.8 0.8-0.3 0-1-0.5-1-1.2-0.8-1.5-2.5-1.5-3.8z"/>
  <path class="cls-16" d="m24.1 74.9c-0.7-2.3 2.3-6.3 6.3-9.3s10-5.5 13.7-4.2h-0.2c-8.5-1.3-19.8 7.7-19.8 13.5z"/>
  <path class="cls-18" d="m41.4 79.1c2-1.5 6.2-7.2 5.7-11.5 1.3 3-3 10.5-5.7 11.5z"/>
  <path class="cls-4" d="m26.6 41.6-1.5 1.4c0 0.9 2.8-0.4 2-1.6l-0.5 0.2z"/>
  <path class="cls-4" d="m27.6 39.9"/>
  <path class="cls-4" d="m27.6 39.9"/>
  <path class="cls-4" d="m27.6 41.4c1.5 0.5 5-5.8 4.5-7.8-0.5 2.5-3.7 6.8-4.5 7.8z"/>
  <path class="cls-4" d="m25.1 28.4"/>
  <path class="cls-4" d="m86.9 19.6c-1.3-0.2-2.8-1-4 1-0.8 1.5-2.8 7.3-3.3 9.3-0.5 0.5-1-0.3-1-0.8 0.5-2.5 2-6.7 3-9.1 1-1.6 2.3-1.9 5.3-0.4z"/>
  <path class="cls-21" d="m85.6 38.1 1-2h0.3l-1.3 2z"/>
  <path class="cls-4" d="m86.1 38.1 0.5-2h0.3l-0.8 2z"/>
  <path class="cls-4" d="m86.6 35.4h0.8c1.5-2.8 4-8 8.2-7.3-2.7-2-7.2 1.5-9 7.3z"/>
  <path class="cls-4" d="m48.6 37.6-0.5 0.3c-4.5-2.5-6.7 1.5-9.7 10.2h-0.5c-0.8-1.5 3.5-15.5 9-11.5l1.7 1z"/>
  <path class="cls-21" d="m46.6 47.9"/>
  <path class="cls-6" d="m46.4 47.9"/>
  <path class="cls-6" d="m40.6 51.1c-0.5 1.8-2.5 4.3-3.7 2.3h-0.5c-0.3 2.2 3.7 5.2 5.5 3.5l4.7-6.8h-0.2l0.2-0.7 0.5 0.7 0.3-0.5 0.7-1.2 1 1.7h0.8l0.2-2.2h0.3l0.2 3.7c1.3 0.8 3.8-2.2 4.3-2.2v2.2l-2.5 3.8c-3 0.7-5.8-1.5-6-5.3l-4 6.8c-1 1.5-6.5 0.2-6-3.5l0.2-1 0.8 0.7c1.7 2.5 3-0.7 3.2-2z"/>
  <path class="cls-4" d="m50.4 38.6 0.5 0.5c1-1.2 2.5-1.7 3.7-1.2l-2.7-1-1.5 1.7z"/>
  <path class="cls-4" d="m54.9 32.6v1.5l0.7 0.3v-1.8l2.5 0.3 0.8-0.5h1l0.5-0.8-5.5 1z"/>
  <path class="cls-4" d="m63.1 23.9-2.5 8.2 0.8-0.2 2.2-8h-0.5z"/>
  <path class="cls-4" d="m59.4 34.9-2.5 9.7 0.7-0.5 2.5-9.5-0.7 0.3z"/>
  <path class="cls-21" d="m60.6 40.9-2.7 14c-0.8 0-1-3.5-1-3.5l-1.3 2.2-0.5-2.5 1.3-6.5 1-1v1l3.2-3.7z"/>
  <path class="cls-4" d="m60.6 40.9-2.7 14h0.2l2.5-6.8-0.2 0.8v0.7h0.2v-8.7z"/>
  <path class="cls-4" d="m69.1 33.4-2.5 8.7 0.8-0.2 2.2-8.8-0.5 0.3z"/>
  <path class="cls-4" d="m72.6 22.1-2.5 8 0.5-0.2 2.8-7.8h-0.8z"/>
  <path class="cls-4" d="m78.4 32.4-1.8 8h0.5l1.8-8h-0.5z"/>
  <path class="cls-16" d="m74.6 61.1h-0.5c0-2.5 1.3-6.7 3.3-6.5l1.7 0.3c-3.2-0.3-3.5 2.7-4.5 6.2z"/>
  <path class="cls-16" d="m79.6 74.1h-0.2l2.7-9.7c0.5-1 2.8 0 3 0.5l-2.5-0.3-3 9.5z"/>
  <path class="cls-16" d="m86.9 69.6c0.5-1 3.5-6 5.5-6.7 1.2-0.3 2.7 0.5 3 1.2-3-1.7-3.5-0.2-8.5 5.5z"/>
  <path class="cls-16" d="m101.6 61.6-2 8.5h0.3l2.2-8.5h-0.5z"/>
  <path class="cls-10" d="m101.9 67.1v0.5h0.7l0.3-0.7-1 0.2z"/>
  <path class="cls-16" d="m113.4 60.1h0.5c1.5-2 3.5-3 4.7-2.5-2 0-3.5 1.3-5.2 2.5z"/>
  <path class="cls-16" d="m119.1 58 0.5 0.4v-0.8l-0.5 0.4z"/>
  <path class="cls-16" d="m124.9 66.1h-0.3l2.5-10.2c0.5-1.3 3.5-0.5 4 0.7l-3.2-0.7-3 10.2z"/>
  <path class="cls-16" d="m133.4 58.9 3.7-4.5 4 1-0.5-0.3c-1-0.7-3-2-4.2-1.7-0.8 0.2-2.8 4.2-3.3 5.2l0.3 0.3z"/>
  <path class="cls-10" d="m31.9 76.6h-0.3c-1.5 4.5-4.5 15.5-4.2 17.5 0.2 2 2.7 4 4.5 3.3l0.2-4.8 1.3-5c1.7-0.2 6-1.2 8.5-5-2.8 1.5-7.8 3.5-10.5 2l-2 8.4v-1.9c-0.3-0.5 2.5-13.2 2.5-14.5z"/>
  <path class="cls-2" d="m30.1 93.6-0.2-0.7 1.2-3.8c-1.2 0.5-2.2 5-1 4.5z"/>
  <path class="cls-16" d="m50.4 80.6-0.3-0.2c0.8-3.8 4.5-11.8 7.8-12.3 1.7-0.5 3.7 0.8 4.5 1.5l-3-0.7c-3.5-0.3-7 7.2-9 11.7z"/>
  <path class="cls-16" d="m63.6 70.4h0.8c0.2-0.8 2.5-1 3.5-0.5-0.5-0.8-3.5-1.8-4.3 0.5z"/>
  <path class="cls-16" d="m71.1 71.1h-0.2c0.5-1.7 1.5-4.5 2.5-4.7 1-0.3 3.2 0 3.2 0.5l-3-0.3c-1 0.5-1.5 3-2.5 4.5z"/>
  <path class="cls-10" d="m51.6 86.6"/>
  <path class="cls-16" d="m51.6 86.6h0.5l-0.5 0.3v-0.3z"/>
  <path class="cls-16" d="m115.1 77.6c0.5-0.5 1.8-1 2.5-0.5l2.3-0.7c-0.8 1-3 1.7-4.8 1.2z"/>
  <path class="cls-4" d="m17.6 38.1-4.5 18.5 0.3-0.2c0.5-4.5 3.5-13.8 4.5-18.3h-0.3z"/>
  <path class="cls-22" d="m55.6 63.6 0.8 0.3c3.2-0.5 5.7 0.5 7 2.5l7.5-3v-0.3l-4.5 0.5 2.7-3c-2.7 0.8-9.5 2.5-13 3h-0.5z"/>
  <path class="cls-4" d="m22.6 44.6v0.3l0.8-0.5-0.8 0.2z"/>
  <path class="cls-16" d="m134.1 15.6c-3.5-0.5-7.5-1-11.7 2 4.2-1.7 8.5-1.5 10.7-1l6.8-1c-2 0.3-3 0.3-5.8 0z"/>
</g>
</svg>